G04 Layer_Color=65535*
%FSLAX44Y44*%
%MOMM*%
G71*
G01*
G75*
%ADD19C,0.2540*%
%ADD31C,0.4000*%
%ADD32C,0.2000*%
%ADD33C,0.2500*%
%ADD34C,0.1000*%
%ADD35C,0.1500*%
%ADD36C,0.2032*%
D19*
X1357000Y862000D02*
G03*
X1407000Y862000I25000J0D01*
G01*
Y910800D02*
G03*
X1357000Y910800I-25000J0D01*
G01*
X1095000Y691200D02*
G03*
X1145000Y691200I25000J0D01*
G01*
Y740000D02*
G03*
X1095000Y740000I-25000J0D01*
G01*
X1180000Y1097000D02*
Y1145000D01*
X1078000Y1097000D02*
X1180000D01*
X1078000D02*
Y1199000D01*
X1180000D01*
Y1145000D02*
Y1199000D01*
X1308250Y1097000D02*
Y1145000D01*
X1206250Y1097000D02*
X1308250D01*
X1206250D02*
Y1199000D01*
X1308250D01*
Y1145000D02*
Y1199000D01*
X1357000Y862000D02*
Y910800D01*
X1407000Y862000D02*
Y910800D01*
X1095000Y691200D02*
Y740000D01*
X1145000Y691200D02*
Y740000D01*
X1428300Y1110500D02*
X1470850D01*
X1428000Y1110200D02*
X1428300Y1110500D01*
X1428000Y754800D02*
Y1110200D01*
Y754800D02*
X1428100Y754900D01*
X1470850D01*
X1509150Y1110500D02*
X1549700D01*
X1550000Y1110200D01*
Y756800D02*
Y1110200D01*
X1548000Y754800D02*
X1550000Y756800D01*
X1509250Y754800D02*
X1548000D01*
X1550000D02*
Y756800D01*
X1546000Y754800D02*
X1550000D01*
X1235000Y1025000D02*
X1335000D01*
Y1075000D01*
X1235000D02*
X1335000D01*
X1207000Y1025000D02*
Y1040500D01*
Y1059500D02*
Y1075000D01*
X1235000D01*
X1207000Y1040500D02*
Y1059500D01*
Y1025000D02*
X1235000D01*
X1562000Y840000D02*
Y855235D01*
X1569617D01*
X1572157Y852696D01*
Y847617D01*
X1569617Y845078D01*
X1562000D01*
X1587392Y840000D02*
X1577235D01*
X1587392Y850157D01*
Y852696D01*
X1584853Y855235D01*
X1579774D01*
X1577235Y852696D01*
X1411657Y966196D02*
X1409117Y968735D01*
X1404039D01*
X1401500Y966196D01*
Y956039D01*
X1404039Y953500D01*
X1409117D01*
X1411657Y956039D01*
X1416735Y966196D02*
X1419274Y968735D01*
X1424353D01*
X1426892Y966196D01*
Y963657D01*
X1424353Y961117D01*
X1421813D01*
X1424353D01*
X1426892Y958578D01*
Y956039D01*
X1424353Y953500D01*
X1419274D01*
X1416735Y956039D01*
X1342407Y924539D02*
Y934696D01*
X1339868Y937235D01*
X1334789D01*
X1332250Y934696D01*
Y924539D01*
X1334789Y922000D01*
X1339868D01*
X1337328Y927078D02*
X1342407Y922000D01*
X1339868D02*
X1342407Y924539D01*
X1347485Y922000D02*
X1352563D01*
X1350024D01*
Y937235D01*
X1347485Y934696D01*
X1345407Y823696D02*
X1342867Y826235D01*
X1337789D01*
X1335250Y823696D01*
Y813539D01*
X1337789Y811000D01*
X1342867D01*
X1345407Y813539D01*
X1350485D02*
X1353024Y811000D01*
X1358103D01*
X1360642Y813539D01*
Y823696D01*
X1358103Y826235D01*
X1353024D01*
X1350485Y823696D01*
Y821157D01*
X1353024Y818617D01*
X1360642D01*
X1071907Y656446D02*
X1069368Y658985D01*
X1064289D01*
X1061750Y656446D01*
Y646289D01*
X1064289Y643750D01*
X1069368D01*
X1071907Y646289D01*
X1076985Y643750D02*
X1082063D01*
X1079524D01*
Y658985D01*
X1076985Y656446D01*
X1089681D02*
X1092220Y658985D01*
X1097299D01*
X1099838Y656446D01*
Y646289D01*
X1097299Y643750D01*
X1092220D01*
X1089681Y646289D01*
Y656446D01*
X1075657Y755789D02*
Y765946D01*
X1073118Y768485D01*
X1068039D01*
X1065500Y765946D01*
Y755789D01*
X1068039Y753250D01*
X1073118D01*
X1070578Y758328D02*
X1075657Y753250D01*
X1073118D02*
X1075657Y755789D01*
X1090892Y753250D02*
X1080735D01*
X1090892Y763407D01*
Y765946D01*
X1088353Y768485D01*
X1083274D01*
X1080735Y765946D01*
X1297157Y824446D02*
X1294617Y826985D01*
X1289539D01*
X1287000Y824446D01*
Y814289D01*
X1289539Y811750D01*
X1294617D01*
X1297157Y814289D01*
X1312392Y826985D02*
X1302235D01*
Y819368D01*
X1307313Y821907D01*
X1309853D01*
X1312392Y819368D01*
Y814289D01*
X1309853Y811750D01*
X1304774D01*
X1302235Y814289D01*
X1185907Y1068946D02*
X1183367Y1071485D01*
X1178289D01*
X1175750Y1068946D01*
Y1058789D01*
X1178289Y1056250D01*
X1183367D01*
X1185907Y1058789D01*
X1201142Y1056250D02*
X1190985D01*
X1201142Y1066407D01*
Y1068946D01*
X1198603Y1071485D01*
X1193524D01*
X1190985Y1068946D01*
X1189907Y978696D02*
X1187367Y981235D01*
X1182289D01*
X1179750Y978696D01*
Y968539D01*
X1182289Y966000D01*
X1187367D01*
X1189907Y968539D01*
X1194985Y966000D02*
X1200063D01*
X1197524D01*
Y981235D01*
X1194985Y978696D01*
X1164283Y890936D02*
X1161743Y893475D01*
X1156665D01*
X1154126Y890936D01*
Y880779D01*
X1156665Y878240D01*
X1161743D01*
X1164283Y880779D01*
X1176979Y878240D02*
Y893475D01*
X1169361Y885857D01*
X1179518D01*
X1572257Y973738D02*
X1569718Y976277D01*
X1564639D01*
X1562100Y973738D01*
Y963581D01*
X1564639Y961042D01*
X1569718D01*
X1572257Y963581D01*
X1587492Y976277D02*
X1582413Y973738D01*
X1577335Y968660D01*
Y963581D01*
X1579874Y961042D01*
X1584953D01*
X1587492Y963581D01*
Y966120D01*
X1584953Y968660D01*
X1577335D01*
X1377075Y985850D02*
X1374536Y988389D01*
X1369457D01*
X1366918Y985850D01*
Y975693D01*
X1369457Y973154D01*
X1374536D01*
X1377075Y975693D01*
X1382153Y988389D02*
X1392310D01*
Y985850D01*
X1382153Y975693D01*
Y973154D01*
X1116233Y810764D02*
X1113693Y813303D01*
X1108615D01*
X1106076Y810764D01*
Y800607D01*
X1108615Y798068D01*
X1113693D01*
X1116233Y800607D01*
X1121311Y810764D02*
X1123850Y813303D01*
X1128929D01*
X1131468Y810764D01*
Y808225D01*
X1128929Y805686D01*
X1131468Y803146D01*
Y800607D01*
X1128929Y798068D01*
X1123850D01*
X1121311Y800607D01*
Y803146D01*
X1123850Y805686D01*
X1121311Y808225D01*
Y810764D01*
X1123850Y805686D02*
X1128929D01*
X1443454Y1211420D02*
Y1226655D01*
X1451071D01*
X1453611Y1224116D01*
Y1219037D01*
X1451071Y1216498D01*
X1443454D01*
X1458689Y1211420D02*
X1463767D01*
X1461228D01*
Y1226655D01*
X1458689Y1224116D01*
X1618951Y1112009D02*
Y1127244D01*
X1626568D01*
X1629108Y1124705D01*
Y1119626D01*
X1626568Y1117087D01*
X1618951D01*
X1641804Y1112009D02*
Y1127244D01*
X1634186Y1119626D01*
X1644343D01*
X1375376Y728138D02*
Y743373D01*
X1382994D01*
X1385533Y740834D01*
Y735755D01*
X1382994Y733216D01*
X1375376D01*
X1400768Y743373D02*
X1395689Y740834D01*
X1390611Y735755D01*
Y730677D01*
X1393150Y728138D01*
X1398229D01*
X1400768Y730677D01*
Y733216D01*
X1398229Y735755D01*
X1390611D01*
X1384031Y1193721D02*
Y1208956D01*
X1391649D01*
X1394188Y1206417D01*
Y1201339D01*
X1391649Y1198799D01*
X1384031D01*
X1389109D02*
X1394188Y1193721D01*
X1399266D02*
X1404344D01*
X1401805D01*
Y1208956D01*
X1399266Y1206417D01*
X1089820Y1078987D02*
Y1066291D01*
X1092359Y1063752D01*
X1097438D01*
X1099977Y1066291D01*
Y1078987D01*
X1105055Y1063752D02*
X1110133D01*
X1107594D01*
Y1078987D01*
X1105055Y1076448D01*
X1429299Y1134498D02*
Y1121802D01*
X1431838Y1119263D01*
X1436917D01*
X1439456Y1121802D01*
Y1134498D01*
X1454691Y1119263D02*
X1444534D01*
X1454691Y1129420D01*
Y1131959D01*
X1452152Y1134498D01*
X1447073D01*
X1444534Y1131959D01*
X1179777Y902794D02*
Y890098D01*
X1182316Y887559D01*
X1187395D01*
X1189934Y890098D01*
Y902794D01*
X1195012Y900255D02*
X1197551Y902794D01*
X1202630D01*
X1205169Y900255D01*
Y897716D01*
X1202630Y895176D01*
X1200090D01*
X1202630D01*
X1205169Y892637D01*
Y890098D01*
X1202630Y887559D01*
X1197551D01*
X1195012Y890098D01*
X1161491Y801910D02*
Y789214D01*
X1164030Y786675D01*
X1169109D01*
X1171648Y789214D01*
Y801910D01*
X1184344Y786675D02*
Y801910D01*
X1176726Y794293D01*
X1186883D01*
D31*
X1213825Y777150D02*
G03*
X1220175Y777150I3175J0D01*
G01*
X1190350Y662850D02*
Y777150D01*
Y662850D02*
X1243650D01*
Y777150D01*
X1220175D02*
X1243650D01*
X1190350D02*
X1213825D01*
D32*
X1209825Y879050D02*
G03*
X1216175Y879050I3175J0D01*
G01*
X1483650Y1110500D02*
G03*
X1496350Y1110500I6350J0D01*
G01*
X1642700Y801900D02*
Y852700D01*
X1591900D02*
X1642700D01*
X1591900Y801900D02*
X1642700D01*
X1591900D02*
Y852700D01*
X1373850Y694050D02*
Y719450D01*
X1627850D01*
Y694050D02*
Y719450D01*
X1608800Y694050D02*
X1627850D01*
X1373850D02*
X1608800D01*
X1202100Y879050D02*
X1209825D01*
X1216175D02*
X1223900D01*
Y828250D02*
Y879050D01*
X1202100Y828250D02*
X1223900D01*
X1202100D02*
Y879050D01*
X1470850Y754900D02*
X1509150D01*
X1496350Y1110500D02*
X1509150D01*
X1470850D02*
X1483650D01*
X1390000Y1165400D02*
Y1167686D01*
Y1112314D02*
Y1114600D01*
Y1165400D02*
X1397620D01*
Y1114600D02*
Y1165400D01*
X1382380Y1114600D02*
X1397620D01*
X1382380D02*
Y1165400D01*
X1390000D01*
X1642700Y951100D02*
Y1103500D01*
X1617300Y951100D02*
Y1103500D01*
Y951100D02*
X1642700D01*
X1617300Y1103500D02*
X1642700D01*
X1441900Y1177300D02*
Y1202700D01*
X1543500D01*
X1441900Y1177300D02*
X1543500D01*
Y1202700D01*
X1114500Y1053500D02*
X1145500D01*
X1114500Y986500D02*
X1145500D01*
X1114500D02*
Y1053500D01*
X1145500Y986500D02*
Y1053500D01*
X1335000Y1050000D02*
Y1075000D01*
X1235000D02*
X1335000D01*
X1235000Y1025000D02*
X1335000D01*
Y1050000D01*
D33*
X1160500Y986500D02*
G03*
X1160500Y986500I-1250J0D01*
G01*
D34*
X1407000Y918000D02*
X1417000D01*
X1407000D02*
Y950000D01*
X1427000D01*
Y918000D02*
Y950000D01*
X1417000Y918000D02*
X1427000D01*
X1398000Y810000D02*
Y820000D01*
X1366000Y810000D02*
X1398000D01*
X1366000D02*
Y830000D01*
X1398000D01*
Y820000D02*
Y830000D01*
X1136000Y640000D02*
Y650000D01*
X1104000Y640000D02*
X1136000D01*
X1104000D02*
Y660000D01*
X1136000D01*
Y650000D02*
Y660000D01*
X1290000Y796000D02*
X1300000D01*
Y764000D02*
Y796000D01*
X1280000Y764000D02*
X1300000D01*
X1280000D02*
Y796000D01*
X1290000D01*
X1175000Y1020000D02*
X1185000D01*
X1175000D02*
Y1052000D01*
X1195000D01*
Y1020000D02*
Y1052000D01*
X1185000Y1020000D02*
X1195000D01*
X1186000Y1019000D02*
X1196000D01*
Y987000D02*
Y1019000D01*
X1176000Y987000D02*
X1196000D01*
X1176000D02*
Y1019000D01*
X1186000D01*
X1136000Y770000D02*
Y780000D01*
X1104000Y770000D02*
X1136000D01*
X1104000D02*
Y790000D01*
X1136000D01*
Y780000D02*
Y790000D01*
X1397000Y945000D02*
Y955000D01*
X1365000Y945000D02*
X1397000D01*
X1365000D02*
Y965000D01*
X1397000D01*
Y955000D02*
Y965000D01*
X1570000Y953000D02*
X1580000D01*
Y921000D02*
Y953000D01*
X1560000Y921000D02*
X1580000D01*
X1560000D02*
Y953000D01*
X1570000D01*
X1162000Y870000D02*
X1172000D01*
Y838000D02*
Y870000D01*
X1152000Y838000D02*
X1172000D01*
X1152000D02*
Y870000D01*
X1162000D01*
X1450665Y1171832D02*
X1449499Y1172998D01*
X1447166D01*
X1446000Y1171832D01*
Y1167166D01*
X1447166Y1166000D01*
X1449499D01*
X1450665Y1167166D01*
Y1169499D01*
X1448333D01*
X1452998Y1166000D02*
Y1172998D01*
X1457663Y1166000D01*
Y1172998D01*
X1459996D02*
Y1166000D01*
X1463494D01*
X1464661Y1167166D01*
Y1171832D01*
X1463494Y1172998D01*
X1459996D01*
X1474665Y1171832D02*
X1473499Y1172998D01*
X1471166D01*
X1470000Y1171832D01*
Y1167166D01*
X1471166Y1166000D01*
X1473499D01*
X1474665Y1167166D01*
Y1169499D01*
X1472333D01*
X1476998Y1166000D02*
Y1172998D01*
X1481663Y1166000D01*
Y1172998D01*
X1483996D02*
Y1166000D01*
X1487494D01*
X1488661Y1167166D01*
Y1171832D01*
X1487494Y1172998D01*
X1483996D01*
X1492000Y1169499D02*
X1496665D01*
X1494333Y1171832D02*
Y1167166D01*
X1498998Y1171832D02*
X1500164Y1172998D01*
X1502497D01*
X1503663Y1171832D01*
Y1170665D01*
X1502497Y1169499D01*
X1501330D01*
X1502497D01*
X1503663Y1168333D01*
Y1167166D01*
X1502497Y1166000D01*
X1500164D01*
X1498998Y1167166D01*
X1505995Y1172998D02*
Y1168333D01*
X1508328Y1166000D01*
X1510661Y1168333D01*
Y1172998D01*
X1512993Y1171832D02*
X1514160Y1172998D01*
X1516492D01*
X1517658Y1171832D01*
Y1170665D01*
X1516492Y1169499D01*
X1515326D01*
X1516492D01*
X1517658Y1168333D01*
Y1167166D01*
X1516492Y1166000D01*
X1514160D01*
X1512993Y1167166D01*
X1521000Y1169499D02*
X1525665D01*
X1523333Y1171832D02*
Y1167166D01*
X1532663Y1172998D02*
X1527998D01*
Y1169499D01*
X1530330Y1170665D01*
X1531497D01*
X1532663Y1169499D01*
Y1167166D01*
X1531497Y1166000D01*
X1529164D01*
X1527998Y1167166D01*
X1534996Y1172998D02*
Y1168333D01*
X1537328Y1166000D01*
X1539661Y1168333D01*
Y1172998D01*
D35*
X1599000Y1086000D02*
Y1091332D01*
X1601666Y1093997D01*
X1604332Y1091332D01*
Y1086000D01*
Y1089999D01*
X1599000D01*
X1612329Y1093997D02*
X1606997D01*
Y1089999D01*
X1609663Y1091332D01*
X1610996D01*
X1612329Y1089999D01*
Y1087333D01*
X1610996Y1086000D01*
X1608330D01*
X1606997Y1087333D01*
X1599000Y1062000D02*
Y1067332D01*
X1601666Y1069997D01*
X1604332Y1067332D01*
Y1062000D01*
Y1065999D01*
X1599000D01*
X1610996Y1062000D02*
Y1069997D01*
X1606997Y1065999D01*
X1612329D01*
X1599000Y1036000D02*
Y1041332D01*
X1601666Y1043997D01*
X1604332Y1041332D01*
Y1036000D01*
Y1039999D01*
X1599000D01*
X1606997Y1042664D02*
X1608330Y1043997D01*
X1610996D01*
X1612329Y1042664D01*
Y1041332D01*
X1610996Y1039999D01*
X1609663D01*
X1610996D01*
X1612329Y1038666D01*
Y1037333D01*
X1610996Y1036000D01*
X1608330D01*
X1606997Y1037333D01*
X1599000Y1011000D02*
Y1016332D01*
X1601666Y1018997D01*
X1604332Y1016332D01*
Y1011000D01*
Y1014999D01*
X1599000D01*
X1612329Y1011000D02*
X1606997D01*
X1612329Y1016332D01*
Y1017664D01*
X1610996Y1018997D01*
X1608330D01*
X1606997Y1017664D01*
X1599000Y985000D02*
Y990332D01*
X1601666Y992997D01*
X1604332Y990332D01*
Y985000D01*
Y988999D01*
X1599000D01*
X1606997Y985000D02*
X1609663D01*
X1608330D01*
Y992997D01*
X1606997Y991665D01*
X1599000Y960000D02*
Y965332D01*
X1601666Y967997D01*
X1604332Y965332D01*
Y960000D01*
Y963999D01*
X1599000D01*
X1606997Y966665D02*
X1608330Y967997D01*
X1610996D01*
X1612329Y966665D01*
Y961333D01*
X1610996Y960000D01*
X1608330D01*
X1606997Y961333D01*
Y966665D01*
X1382003Y676000D02*
X1390000D01*
Y679999D01*
X1388667Y681332D01*
X1383336D01*
X1382003Y679999D01*
Y676000D01*
X1388667Y683997D02*
X1390000Y685330D01*
Y687996D01*
X1388667Y689329D01*
X1383336D01*
X1382003Y687996D01*
Y685330D01*
X1383336Y683997D01*
X1384668D01*
X1386001Y685330D01*
Y689329D01*
X1407003Y676000D02*
X1415000D01*
Y679999D01*
X1413667Y681332D01*
X1408336D01*
X1407003Y679999D01*
Y676000D01*
X1408336Y683997D02*
X1407003Y685330D01*
Y687996D01*
X1408336Y689329D01*
X1409668D01*
X1411001Y687996D01*
X1412334Y689329D01*
X1413667D01*
X1415000Y687996D01*
Y685330D01*
X1413667Y683997D01*
X1412334D01*
X1411001Y685330D01*
X1409668Y683997D01*
X1408336D01*
X1411001Y685330D02*
Y687996D01*
X1432003Y676000D02*
X1440000D01*
Y679999D01*
X1438667Y681332D01*
X1433336D01*
X1432003Y679999D01*
Y676000D01*
Y683997D02*
Y689329D01*
X1433336D01*
X1438667Y683997D01*
X1440000D01*
X1458003Y676000D02*
X1466000D01*
Y679999D01*
X1464667Y681332D01*
X1459335D01*
X1458003Y679999D01*
Y676000D01*
Y689329D02*
X1459335Y686663D01*
X1462001Y683997D01*
X1464667D01*
X1466000Y685330D01*
Y687996D01*
X1464667Y689329D01*
X1463334D01*
X1462001Y687996D01*
Y683997D01*
X1483003Y676000D02*
X1491000D01*
Y679999D01*
X1489667Y681332D01*
X1484335D01*
X1483003Y679999D01*
Y676000D01*
Y689329D02*
Y683997D01*
X1487001D01*
X1485668Y686663D01*
Y687996D01*
X1487001Y689329D01*
X1489667D01*
X1491000Y687996D01*
Y685330D01*
X1489667Y683997D01*
X1510003Y676000D02*
X1518000D01*
Y679999D01*
X1516667Y681332D01*
X1511335D01*
X1510003Y679999D01*
Y676000D01*
X1518000Y687996D02*
X1510003D01*
X1514001Y683997D01*
Y689329D01*
X1535003Y676000D02*
X1543000D01*
Y679999D01*
X1541667Y681332D01*
X1536335D01*
X1535003Y679999D01*
Y676000D01*
X1536335Y683997D02*
X1535003Y685330D01*
Y687996D01*
X1536335Y689329D01*
X1537668D01*
X1539001Y687996D01*
Y686663D01*
Y687996D01*
X1540334Y689329D01*
X1541667D01*
X1543000Y687996D01*
Y685330D01*
X1541667Y683997D01*
X1586003Y678666D02*
X1594000D01*
Y682664D01*
X1592667Y683997D01*
X1587336D01*
X1586003Y682664D01*
Y678666D01*
X1594000Y686663D02*
Y689329D01*
Y687996D01*
X1586003D01*
X1587336Y686663D01*
X1613003Y676000D02*
X1621000D01*
Y679999D01*
X1619667Y681332D01*
X1614335D01*
X1613003Y679999D01*
Y676000D01*
X1614335Y683997D02*
X1613003Y685330D01*
Y687996D01*
X1614335Y689329D01*
X1619667D01*
X1621000Y687996D01*
Y685330D01*
X1619667Y683997D01*
X1614335D01*
X1095332Y1216665D02*
X1093999Y1217997D01*
X1091333D01*
X1090000Y1216665D01*
Y1211333D01*
X1091333Y1210000D01*
X1093999D01*
X1095332Y1211333D01*
X1097997Y1210000D02*
Y1215332D01*
X1100663Y1217997D01*
X1103329Y1215332D01*
Y1210000D01*
Y1213999D01*
X1097997D01*
X1105995Y1210000D02*
Y1217997D01*
X1111327Y1210000D01*
Y1217997D01*
X1113992D02*
Y1210000D01*
X1119324D01*
X1145332Y1216665D02*
X1143999Y1217997D01*
X1141333D01*
X1140000Y1216665D01*
Y1211333D01*
X1141333Y1210000D01*
X1143999D01*
X1145332Y1211333D01*
X1147997Y1210000D02*
Y1215332D01*
X1150663Y1217997D01*
X1153329Y1215332D01*
Y1210000D01*
Y1213999D01*
X1147997D01*
X1155995Y1210000D02*
Y1217997D01*
X1161327Y1210000D01*
Y1217997D01*
X1163992D02*
Y1210000D01*
Y1213999D01*
X1169324D01*
Y1217997D01*
Y1210000D01*
X1265000Y1213999D02*
X1270332D01*
X1267666Y1216665D02*
Y1211333D01*
X1278329Y1217997D02*
X1272997D01*
Y1213999D01*
X1275663Y1215332D01*
X1276996D01*
X1278329Y1213999D01*
Y1211333D01*
X1276996Y1210000D01*
X1274330D01*
X1272997Y1211333D01*
X1280995Y1217997D02*
Y1212666D01*
X1283661Y1210000D01*
X1286326Y1212666D01*
Y1217997D01*
X1225332Y1216665D02*
X1223999Y1217997D01*
X1221333D01*
X1220000Y1216665D01*
Y1211333D01*
X1221333Y1210000D01*
X1223999D01*
X1225332Y1211333D01*
Y1213999D01*
X1222666D01*
X1227997Y1210000D02*
Y1217997D01*
X1233329Y1210000D01*
Y1217997D01*
X1235995D02*
Y1210000D01*
X1239994D01*
X1241326Y1211333D01*
Y1216665D01*
X1239994Y1217997D01*
X1235995D01*
X1213000Y1014999D02*
X1218332D01*
X1215666Y1017664D02*
Y1012333D01*
X1220997Y1017664D02*
X1222330Y1018997D01*
X1224996D01*
X1226329Y1017664D01*
Y1016332D01*
X1224996Y1014999D01*
X1223663D01*
X1224996D01*
X1226329Y1013666D01*
Y1012333D01*
X1224996Y1011000D01*
X1222330D01*
X1220997Y1012333D01*
X1228995Y1018997D02*
Y1013666D01*
X1231661Y1011000D01*
X1234326Y1013666D01*
Y1018997D01*
X1236992Y1017664D02*
X1238325Y1018997D01*
X1240991D01*
X1242324Y1017664D01*
Y1016332D01*
X1240991Y1014999D01*
X1239658D01*
X1240991D01*
X1242324Y1013666D01*
Y1012333D01*
X1240991Y1011000D01*
X1238325D01*
X1236992Y1012333D01*
X1260000Y1018997D02*
Y1013666D01*
X1262666Y1011000D01*
X1265332Y1013666D01*
Y1018997D01*
X1273329Y1017664D02*
X1271996Y1018997D01*
X1269330D01*
X1267997Y1017664D01*
Y1012333D01*
X1269330Y1011000D01*
X1271996D01*
X1273329Y1012333D01*
X1281326Y1017664D02*
X1279994Y1018997D01*
X1277328D01*
X1275995Y1017664D01*
Y1012333D01*
X1277328Y1011000D01*
X1279994D01*
X1281326Y1012333D01*
X1298000Y1014999D02*
X1303332D01*
X1300666Y1017664D02*
Y1012333D01*
X1311329Y1018997D02*
X1305997D01*
Y1014999D01*
X1308663Y1016332D01*
X1309996D01*
X1311329Y1014999D01*
Y1012333D01*
X1309996Y1011000D01*
X1307330D01*
X1305997Y1012333D01*
X1313995Y1018997D02*
Y1013666D01*
X1316661Y1011000D01*
X1319326Y1013666D01*
Y1018997D01*
D36*
X1636000Y859000D02*
X1623304D01*
X1627536Y863232D01*
X1623304Y867464D01*
X1636000D01*
X1623304Y871696D02*
Y875928D01*
Y873812D01*
X1636000D01*
Y871696D01*
Y875928D01*
X1625420Y890740D02*
X1623304Y888624D01*
Y884392D01*
X1625420Y882276D01*
X1627536D01*
X1629652Y884392D01*
Y888624D01*
X1631768Y890740D01*
X1633884D01*
X1636000Y888624D01*
Y884392D01*
X1633884Y882276D01*
X1623304Y901320D02*
Y897088D01*
X1625420Y894972D01*
X1633884D01*
X1636000Y897088D01*
Y901320D01*
X1633884Y903436D01*
X1625420D01*
X1623304Y901320D01*
X1610000Y861116D02*
X1597304D01*
X1601536Y865348D01*
X1597304Y869580D01*
X1610000D01*
X1597304Y880160D02*
Y875928D01*
X1599420Y873812D01*
X1607884D01*
X1610000Y875928D01*
Y880160D01*
X1607884Y882276D01*
X1599420D01*
X1597304Y880160D01*
X1599420Y894972D02*
X1597304Y892856D01*
Y888624D01*
X1599420Y886508D01*
X1601536D01*
X1603652Y888624D01*
Y892856D01*
X1605768Y894972D01*
X1607884D01*
X1610000Y892856D01*
Y888624D01*
X1607884Y886508D01*
X1597304Y899204D02*
Y903436D01*
Y901320D01*
X1610000D01*
Y899204D01*
Y903436D01*
X1599420Y781464D02*
X1597304Y779348D01*
Y775116D01*
X1599420Y773000D01*
X1607884D01*
X1610000Y775116D01*
Y779348D01*
X1607884Y781464D01*
X1599420Y794160D02*
X1597304Y792044D01*
Y787812D01*
X1599420Y785696D01*
X1601536D01*
X1603652Y787812D01*
Y792044D01*
X1605768Y794160D01*
X1607884D01*
X1610000Y792044D01*
Y787812D01*
X1607884Y785696D01*
X1625420Y770464D02*
X1623304Y768348D01*
Y764116D01*
X1625420Y762000D01*
X1627536D01*
X1629652Y764116D01*
Y768348D01*
X1631768Y770464D01*
X1633884D01*
X1636000Y768348D01*
Y764116D01*
X1633884Y762000D01*
X1625420Y783160D02*
X1623304Y781044D01*
Y776812D01*
X1625420Y774696D01*
X1633884D01*
X1636000Y776812D01*
Y781044D01*
X1633884Y783160D01*
X1623304Y787392D02*
X1636000D01*
X1631768D01*
X1623304Y795856D01*
X1629652Y789508D01*
X1636000Y795856D01*
M02*
