G04 Layer_Physical_Order=1*
G04 Layer_Color=255*
%FSLAX44Y44*%
%MOMM*%
G71*
G01*
G75*
%ADD10R,1.0000X0.7000*%
%ADD11R,0.7000X1.0000*%
%ADD12O,2.0000X0.6000*%
%ADD13R,2.0000X0.6000*%
%ADD14R,1.5500X0.6000*%
%ADD15O,1.5500X0.6000*%
%ADD16R,2.1500X3.2500*%
%ADD17R,2.1500X1.0000*%
%ADD18R,2.5000X2.5000*%
%ADD19C,0.2540*%
%ADD20C,0.5000*%
%ADD21R,1.5000X1.5000*%
%ADD22C,1.5000*%
%ADD23C,3.0000*%
%ADD24C,1.2000*%
%ADD25C,1.5240*%
%ADD26R,1.5000X1.5000*%
%ADD27O,2.5000X1.2000*%
%ADD28R,2.5000X1.2000*%
%ADD29C,1.4000*%
%ADD30C,1.2700*%
D10*
X1417000Y941000D02*
D03*
Y927000D02*
D03*
X1290000Y773000D02*
D03*
Y787000D02*
D03*
X1185000Y1043000D02*
D03*
Y1029000D02*
D03*
X1186000Y996000D02*
D03*
Y1010000D02*
D03*
X1570000Y930000D02*
D03*
Y944000D02*
D03*
X1162000Y847000D02*
D03*
Y861000D02*
D03*
D11*
X1375000Y820000D02*
D03*
X1389000D02*
D03*
X1113000Y650000D02*
D03*
X1127000D02*
D03*
X1113000Y780000D02*
D03*
X1127000D02*
D03*
X1374000Y955000D02*
D03*
X1388000D02*
D03*
D12*
X1264000Y669200D02*
D03*
Y681900D02*
D03*
Y694600D02*
D03*
Y707300D02*
D03*
Y720000D02*
D03*
Y732700D02*
D03*
Y745400D02*
D03*
Y758100D02*
D03*
Y770800D02*
D03*
X1170000Y669200D02*
D03*
Y681900D02*
D03*
Y694600D02*
D03*
Y707300D02*
D03*
Y720000D02*
D03*
Y732700D02*
D03*
Y745400D02*
D03*
Y758100D02*
D03*
D13*
Y770800D02*
D03*
D14*
X1186000Y872700D02*
D03*
D15*
Y860000D02*
D03*
Y847300D02*
D03*
Y834600D02*
D03*
X1240000Y872700D02*
D03*
Y860000D02*
D03*
Y847300D02*
D03*
Y834600D02*
D03*
D16*
X1100750Y1020000D02*
D03*
D17*
X1159250Y1043000D02*
D03*
Y1020000D02*
D03*
Y997000D02*
D03*
D18*
X1230000Y1050000D02*
D03*
X1310000D02*
D03*
X1270000D02*
D03*
D19*
X1454500Y915500D02*
X1458750Y919750D01*
X1526900Y1168500D02*
X1554500D01*
X1505400Y1190000D02*
X1526900Y1168500D01*
X1554500D02*
X1565250Y1179250D01*
X1574000Y815000D02*
Y815500D01*
X1598500Y840000D01*
X1619250Y781000D02*
X1641000Y759250D01*
X1585000Y781000D02*
X1619250D01*
X1530000Y767600D02*
X1614400D01*
X1319000Y678580D02*
X1641330D01*
X1315080Y682500D02*
X1319000Y678580D01*
X1641330D02*
X1646420Y683670D01*
X1606050Y963800D02*
X1630000D01*
X1572500Y1065400D02*
X1630000D01*
X1612350Y1014600D02*
X1630000D01*
X1614400Y767600D02*
X1635920Y746080D01*
Y694920D02*
Y746080D01*
X1629750Y688750D02*
X1635920Y694920D01*
X1656580Y676580D02*
Y788020D01*
X1647000Y667000D02*
X1656580Y676580D01*
X1307500Y667000D02*
X1647000D01*
X1404550Y688750D02*
X1629750D01*
X1321000Y687764D02*
Y720250D01*
Y687764D02*
X1325104Y683660D01*
X1631844D01*
X1319000Y722250D02*
X1321000Y720250D01*
X1281403Y745400D02*
X1315080Y711723D01*
Y682500D02*
Y711723D01*
X1310000Y680396D02*
Y709618D01*
Y680396D02*
X1316896Y673500D01*
X1645000D01*
X1286918Y732700D02*
X1310000Y709618D01*
X1208250Y1095000D02*
Y1183250D01*
X1247750Y1222750D01*
X1208250Y1095000D02*
X1230000Y1073250D01*
Y1050000D02*
Y1073250D01*
X1247750Y1222750D02*
X1551000D01*
X1565250Y1208500D01*
Y1179250D02*
Y1208500D01*
X1152300Y1142300D02*
X1159800Y1134800D01*
X1072750Y1113300D02*
X1106700Y1147250D01*
X1450500Y777410D02*
Y793000D01*
X1316250Y1178000D02*
X1316350Y1178100D01*
X1390000D01*
X1312000Y1173750D02*
X1313250Y1175000D01*
X1386900D02*
X1390000Y1178100D01*
X1240300Y873000D02*
X1260000D01*
X1240000Y872700D02*
X1240300Y873000D01*
X1344500Y1029750D02*
Y1075500D01*
Y1080500D01*
Y1075500D02*
X1360000Y1060000D01*
Y1035000D02*
Y1060000D01*
X1186000Y996000D02*
X1261000D01*
X1389000Y796000D02*
Y820000D01*
X1283250Y1141750D02*
Y1145000D01*
Y1091750D02*
Y1141750D01*
X1310000Y1050000D02*
Y1065000D01*
X1283250Y1091750D02*
X1310000Y1065000D01*
X1283250Y1141750D02*
X1344500Y1080500D01*
X1072750Y972000D02*
Y1113300D01*
X1079500Y1069500D02*
X1152300Y1142300D01*
X1079500Y975500D02*
Y1069500D01*
X1313875Y1003875D02*
X1318625D01*
X1344500Y1029750D01*
X1318625Y1003875D02*
X1343750Y978750D01*
X1135340Y861090D02*
X1146950Y872700D01*
X1135340Y805460D02*
X1170000Y770800D01*
X1135340Y805460D02*
Y861090D01*
X1145500Y852500D02*
Y861000D01*
X1145500Y861000D01*
X1162000D01*
X1191250Y1029000D02*
X1201000Y1019250D01*
X1185000Y1029000D02*
X1191250D01*
X1290000Y799250D02*
X1294000Y803250D01*
X1290000Y787000D02*
Y799250D01*
X1127000Y780000D02*
X1144000D01*
X1127000Y650000D02*
X1127250Y649750D01*
X1152500D01*
Y663750D01*
X1157950Y669200D01*
X1170000D01*
X1305000Y995000D02*
X1313875Y1003875D01*
X1305000Y846750D02*
Y995000D01*
X1343750Y978750D02*
X1393500D01*
X1279250Y821000D02*
X1305000Y846750D01*
X1277000Y821000D02*
X1279250D01*
X1227500Y814500D02*
X1242000D01*
X1210500Y831500D02*
X1227500Y814500D01*
X1210500Y831500D02*
Y842000D01*
X1205200Y847300D02*
X1210500Y842000D01*
X1186000Y847300D02*
X1205200D01*
X1264000Y758100D02*
X1287350D01*
X1290000Y760750D01*
Y773000D01*
X1450000Y920000D02*
X1454500Y915500D01*
X1424000Y920000D02*
X1450000D01*
X1417000Y927000D02*
X1424000Y920000D01*
X1388000Y955000D02*
X1416000Y927000D01*
X1417000D01*
X1375000Y855000D02*
X1382000Y862000D01*
X1375000Y820000D02*
Y855000D01*
X1382000Y862000D02*
X1389200Y869200D01*
X1450000D01*
X1382000Y910800D02*
X1398200Y894600D01*
X1450000D01*
X1374000Y918800D02*
X1382000Y910800D01*
X1374000Y918800D02*
Y955000D01*
X1279500Y685750D02*
X1310000Y655250D01*
X1279500Y685750D02*
Y687816D01*
X1279420Y687896D02*
X1279500Y687816D01*
X1279420Y687896D02*
Y690580D01*
X1275400Y694600D02*
X1279420Y690580D01*
X1264000Y694600D02*
X1275400D01*
X1310000Y655250D02*
X1336500D01*
X1337250Y698000D02*
Y728250D01*
X1319000Y746500D02*
X1337250Y728250D01*
X1319000Y746500D02*
Y981750D01*
X1284500Y690000D02*
X1307500Y667000D01*
X1645000Y673500D02*
X1651500Y680000D01*
X1338750Y998750D02*
X1361600Y1021600D01*
X1450000D01*
X1264000Y745400D02*
X1281403D01*
X1264000Y732700D02*
X1286918D01*
X1264000Y720000D02*
X1285250D01*
X1280200Y707300D02*
X1284500Y703000D01*
X1264000Y707300D02*
X1280200D01*
X1284500Y690000D02*
Y703000D01*
X1651500Y680000D02*
Y766000D01*
X1615150Y706750D02*
Y724850D01*
X1591250Y748750D02*
X1615150Y724850D01*
X1523750Y748750D02*
X1591250D01*
X1589250Y707250D02*
Y728500D01*
X1575750Y742000D02*
X1589250Y728500D01*
X1522250Y742000D02*
X1575750D01*
X1589250Y707250D02*
X1589750Y706750D01*
X1530750Y731750D02*
X1538250Y724250D01*
Y710750D02*
Y724250D01*
X1523250Y731750D02*
X1530750D01*
X1500000Y755000D02*
X1523250Y731750D01*
X1491750Y752500D02*
X1513550Y730700D01*
Y707000D02*
Y730700D01*
X1488150Y706750D02*
X1500750Y719350D01*
X1462750Y706750D02*
X1475750Y719750D01*
X1466310Y757810D02*
Y771663D01*
X1466250Y757750D02*
X1466310Y757810D01*
X1466250Y742316D02*
Y757750D01*
X1449950Y726016D02*
X1466250Y742316D01*
X1437350Y706750D02*
X1449950Y719350D01*
X1450000Y744800D02*
Y767600D01*
X1417025Y711825D02*
X1450000Y744800D01*
X1392725Y700575D02*
X1404550Y688750D01*
X1631844Y683660D02*
X1641000Y692816D01*
Y759250D01*
X1646420Y683670D02*
Y763580D01*
X1604600Y805400D02*
X1646420Y763580D01*
X1616750Y800750D02*
X1651500Y766000D01*
X1630000Y814600D02*
X1656580Y788020D01*
X1604600Y805400D02*
Y814600D01*
X1577750Y840000D02*
X1598500D01*
X1604600D01*
X1530000Y1072400D02*
X1565500D01*
X1530000Y1097800D02*
X1565500D01*
X1572900Y1090400D01*
X1629600D01*
X1630000Y1090800D01*
X1565500Y1072400D02*
X1572500Y1065400D01*
X1564500Y1047000D02*
X1571600Y1039900D01*
X1629900D01*
X1630000Y1040000D01*
X1530000Y970800D02*
X1562750D01*
X1569800Y963750D01*
X1606000D01*
X1606050Y963800D01*
X1629950Y989150D02*
X1630000Y989200D01*
X1530000Y869200D02*
X1636050D01*
X1652250Y853000D01*
Y816750D02*
Y853000D01*
X1650100Y814600D02*
X1652250Y816750D01*
X1630000Y814600D02*
X1650100D01*
X1630000Y840000D02*
Y845750D01*
X1619000Y856750D02*
X1630000Y845750D01*
X1569500Y856750D02*
X1619000D01*
X1556550Y843800D02*
X1569500Y856750D01*
X1530000Y843800D02*
X1556550D01*
X1556150Y818400D02*
X1577750Y840000D01*
X1530000Y818400D02*
X1556150D01*
X1129300Y681900D02*
X1170000D01*
X1120000Y691200D02*
X1129300Y681900D01*
X1120000Y732000D02*
Y740000D01*
Y732000D02*
X1157400Y694600D01*
X1170000D01*
X1120000Y676250D02*
Y691200D01*
X1113000Y669250D02*
X1120000Y676250D01*
X1113000Y650000D02*
Y669250D01*
Y747000D02*
Y780000D01*
Y747000D02*
X1120000Y740000D01*
X1162000Y847000D02*
X1185700D01*
X1186000Y847300D01*
X1163000Y860000D02*
X1186000D01*
X1162000Y861000D02*
X1163000Y860000D01*
X1159250Y1043000D02*
X1185000D01*
X1205000D01*
X1212000Y1050000D01*
X1230000D01*
X1240000Y860000D02*
X1269000D01*
X1277000Y868000D01*
Y877750D01*
X1264250Y890500D02*
X1277000Y877750D01*
X1164500Y890500D02*
X1264250D01*
X1079500Y975500D02*
X1164500Y890500D01*
X1224950Y847300D02*
X1240000D01*
X1206000Y866250D02*
X1224950Y847300D01*
X1206000Y866250D02*
Y879750D01*
X1201500Y884250D02*
X1206000Y879750D01*
X1160500Y884250D02*
X1201500D01*
X1072750Y972000D02*
X1160500Y884250D01*
X1240000Y834600D02*
X1264000Y810600D01*
Y770800D02*
Y810600D01*
Y770800D02*
X1287800D01*
X1290000Y773000D01*
X1240000Y834600D02*
X1277350D01*
X1294000Y851250D01*
Y993500D01*
X1270000Y1017500D02*
X1294000Y993500D01*
X1270000Y1017500D02*
Y1050000D01*
X1393500Y978750D02*
X1417000Y955250D01*
Y941000D02*
Y955250D01*
X1435900Y945400D02*
X1450000D01*
X1431500Y941000D02*
X1435900Y945400D01*
X1417000Y941000D02*
X1431500D01*
X1530000Y894600D02*
Y920000D01*
X1146950Y872700D02*
X1186000D01*
Y804000D02*
Y834600D01*
Y804000D02*
X1195750Y794250D01*
Y766750D02*
Y794250D01*
X1187100Y758100D02*
X1195750Y766750D01*
X1170000Y758100D02*
X1187100D01*
X1186000Y1010000D02*
Y1028000D01*
X1185000Y1029000D02*
X1186000Y1028000D01*
X1159250Y1020000D02*
X1176000D01*
X1185000Y1029000D01*
X1159250Y997000D02*
X1185000D01*
X1186000Y996000D01*
X1394100Y1097800D02*
X1450000D01*
X1390000Y1101900D02*
X1394100Y1097800D01*
X1531400Y944000D02*
X1570000D01*
X1530000Y945400D02*
X1531400Y944000D01*
X1612250Y1014500D02*
X1612350Y1014600D01*
X1564500Y1021600D02*
X1571600Y1014500D01*
X1612250D01*
X1569800Y989150D02*
X1629950D01*
X1562750Y996200D02*
X1569800Y989150D01*
X1530000Y996200D02*
X1562750D01*
X1450000Y1072400D02*
X1475750D01*
X1530000Y1047000D02*
X1564500D01*
X1530000Y1021600D02*
X1564500D01*
X1530000Y920000D02*
X1560000D01*
X1570000Y930000D01*
X1475750Y1072400D02*
X1512250Y1035900D01*
Y760250D02*
Y1035900D01*
Y760250D02*
X1523750Y748750D01*
X1450000Y1047000D02*
X1492000D01*
X1506250Y1032750D01*
Y758000D02*
Y1032750D01*
Y758000D02*
X1522250Y742000D01*
X1450000Y996200D02*
X1487800D01*
X1500000Y984000D01*
Y755000D02*
Y984000D01*
X1450000Y970800D02*
X1479200D01*
X1491750Y958250D01*
Y752500D02*
Y958250D01*
X1450000Y843800D02*
X1474700D01*
X1484250Y834250D01*
Y746250D02*
Y834250D01*
X1450000Y818400D02*
X1467850D01*
X1450000Y793000D02*
X1450500D01*
X1460563Y777410D02*
X1466310Y771663D01*
X1450500Y777410D02*
X1460563D01*
X1484250Y746250D02*
X1500750Y729750D01*
X1467850Y818400D02*
X1475750Y810500D01*
X1449950Y719350D02*
Y726016D01*
X1500750Y719350D02*
Y729750D01*
X1475750Y719750D02*
Y810500D01*
X1630000Y836750D02*
Y840000D01*
X1583000Y793000D02*
X1604600Y814600D01*
X1530000Y793000D02*
X1583000D01*
X1616750Y800750D02*
Y823500D01*
X1630000Y836750D01*
D20*
X1316350Y1178100D02*
X1353250Y1215000D01*
X1313250Y1175000D02*
X1316250Y1178000D01*
X1283250Y1145000D02*
X1312000Y1173750D01*
X1353250Y1215000D02*
X1523000D01*
X1530800Y1207200D01*
Y1190000D02*
Y1207200D01*
D21*
X1630000Y814600D02*
D03*
Y963800D02*
D03*
D22*
X1604600Y814600D02*
D03*
X1630000Y840000D02*
D03*
X1604600D02*
D03*
X1589750Y706750D02*
D03*
X1538950D02*
D03*
X1513550D02*
D03*
X1488150D02*
D03*
X1462750D02*
D03*
X1437350D02*
D03*
X1411950D02*
D03*
X1386550D02*
D03*
X1564350D02*
D03*
X1630000Y1090800D02*
D03*
Y1065400D02*
D03*
Y1040000D02*
D03*
Y1014600D02*
D03*
Y989200D02*
D03*
X1505400Y1190000D02*
D03*
X1480000D02*
D03*
X1454600D02*
D03*
D23*
X1155000Y1145000D02*
D03*
X1104200D02*
D03*
X1283250D02*
D03*
X1232450D02*
D03*
D24*
X1382000Y862000D02*
D03*
Y910800D02*
D03*
X1120000Y691200D02*
D03*
Y740000D02*
D03*
D25*
X1337250Y698000D02*
D03*
D26*
X1615150Y706750D02*
D03*
X1530800Y1190000D02*
D03*
D27*
X1530000Y767600D02*
D03*
Y793000D02*
D03*
Y818400D02*
D03*
Y843800D02*
D03*
Y869200D02*
D03*
Y894600D02*
D03*
Y920000D02*
D03*
Y945400D02*
D03*
Y970800D02*
D03*
Y996200D02*
D03*
Y1021600D02*
D03*
Y1047000D02*
D03*
Y1072400D02*
D03*
Y1097800D02*
D03*
X1450000Y767600D02*
D03*
Y793000D02*
D03*
Y818400D02*
D03*
Y843800D02*
D03*
Y869200D02*
D03*
Y894600D02*
D03*
Y920000D02*
D03*
Y945400D02*
D03*
Y970800D02*
D03*
Y996200D02*
D03*
Y1021600D02*
D03*
Y1047000D02*
D03*
Y1072400D02*
D03*
D28*
Y1097800D02*
D03*
D29*
X1390000Y1101900D02*
D03*
Y1178100D02*
D03*
D30*
X1574000Y815000D02*
D03*
X1585000Y781000D02*
D03*
X1260000Y873000D02*
D03*
X1360000Y1035000D02*
D03*
X1261000Y996000D02*
D03*
X1389000Y796000D02*
D03*
X1145500Y852500D02*
D03*
X1201000Y1019250D02*
D03*
X1294000Y803250D02*
D03*
X1144000Y780000D02*
D03*
X1152500Y649750D02*
D03*
X1277000Y821000D02*
D03*
X1242000Y814500D02*
D03*
X1336500Y655250D02*
D03*
X1319000Y981750D02*
D03*
X1338750Y998750D02*
D03*
X1285250Y720000D02*
D03*
X1319000Y722250D02*
D03*
M02*
