G04 Layer_Color=16711935*
%FSLAX44Y44*%
%MOMM*%
G71*
G01*
G75*
%ADD46C,1.7272*%
%ADD47C,1.7032*%
%ADD48R,1.7032X1.7032*%
%ADD49R,1.7032X1.7032*%
%ADD50C,1.6032*%
%ADD51R,2.7032X1.4032*%
%ADD52O,2.7032X1.4032*%
%ADD53C,1.4032*%
%ADD54C,3.2032*%
%ADD55C,1.4732*%
D46*
X1115000Y880000D02*
D03*
X1620000Y645000D02*
D03*
Y1200000D02*
D03*
X1337250Y698000D02*
D03*
D47*
X1454600Y1190000D02*
D03*
X1480000D02*
D03*
X1505400D02*
D03*
X1630000Y989200D02*
D03*
Y1014600D02*
D03*
Y1040000D02*
D03*
Y1065400D02*
D03*
Y1090800D02*
D03*
X1564350Y706750D02*
D03*
X1386550D02*
D03*
X1411950D02*
D03*
X1437350D02*
D03*
X1462750D02*
D03*
X1488150D02*
D03*
X1513550D02*
D03*
X1538950D02*
D03*
X1589750D02*
D03*
X1604600Y840000D02*
D03*
X1630000D02*
D03*
X1604600Y814600D02*
D03*
D48*
X1530800Y1190000D02*
D03*
X1615150Y706750D02*
D03*
D49*
X1630000Y963800D02*
D03*
Y814600D02*
D03*
D50*
X1390000Y1178100D02*
D03*
Y1101900D02*
D03*
D51*
X1450000Y1097800D02*
D03*
D52*
Y1072400D02*
D03*
Y1047000D02*
D03*
Y1021600D02*
D03*
Y996200D02*
D03*
Y970800D02*
D03*
Y945400D02*
D03*
Y920000D02*
D03*
Y894600D02*
D03*
Y869200D02*
D03*
Y843800D02*
D03*
Y818400D02*
D03*
Y793000D02*
D03*
Y767600D02*
D03*
X1530000Y1097800D02*
D03*
Y1072400D02*
D03*
Y1047000D02*
D03*
Y1021600D02*
D03*
Y996200D02*
D03*
Y970800D02*
D03*
Y945400D02*
D03*
Y920000D02*
D03*
Y894600D02*
D03*
Y869200D02*
D03*
Y843800D02*
D03*
Y818400D02*
D03*
Y793000D02*
D03*
Y767600D02*
D03*
D53*
X1120000Y740000D02*
D03*
Y691200D02*
D03*
X1382000Y910800D02*
D03*
Y862000D02*
D03*
D54*
X1232450Y1145000D02*
D03*
X1283250D02*
D03*
X1104200D02*
D03*
X1155000D02*
D03*
D55*
X1319000Y722250D02*
D03*
X1285250Y720000D02*
D03*
X1338750Y998750D02*
D03*
X1319000Y981750D02*
D03*
X1336500Y655250D02*
D03*
X1242000Y814500D02*
D03*
X1277000Y821000D02*
D03*
X1152500Y649750D02*
D03*
X1144000Y780000D02*
D03*
X1294000Y803250D02*
D03*
X1201000Y1019250D02*
D03*
X1145500Y852500D02*
D03*
X1389000Y796000D02*
D03*
X1261000Y996000D02*
D03*
X1360000Y1035000D02*
D03*
X1260000Y873000D02*
D03*
X1585000Y781000D02*
D03*
X1574000Y815000D02*
D03*
M02*
