M48
;Layer_Color=9474304
;FILE_FORMAT=4:4
METRIC,LZ
;TYPE=PLATED
T1F00S00C0.6000
T2F00S00C0.7112
T3F00S00C0.7620
T4F00S00C0.8500
T5F00S00C0.9000
T6F00S00C1.5000
;TYPE=NON_PLATED
T7F00S00C2.4000
%
T01
X0145Y007676
Y00793
X0153
Y007676
X0112Y0074
Y006912
X01382Y00862
Y009108
X0145Y0092
Y009454
Y009708
Y009962
Y010216
Y01047
Y010724
Y010978
X0153
Y010724
Y01047
Y010216
Y009962
Y009708
Y009454
Y0092
Y008946
Y008692
Y008438
Y008184
X0145
Y008438
Y008692
Y008946
T02
X013365Y0065525
X01319Y0072225
X0128525Y0072
X01585Y00781
X01144Y0078
X011525Y0064975
X011455Y008525
X01242Y008145
X01277Y00821
X01294Y0080325
X01389Y00796
X01574Y00815
X0126Y00873
X01261Y00996
X01319Y0098175
X0133875Y0099875
X0136Y01035
X01201Y0101925
T03
X0133725Y00698
T04
X0139Y011019
Y011781
T05
X0158975Y0070675
X0161515
X0156435
X0153895
X0151355
X0148815
X0146275
X0143735
X0141195
X0138655
X014546Y0119
X0148
X015054
X015308
X0163Y010908
Y010654
Y0104
Y010146
Y009892
Y009638
Y0084
X016046
Y008146
X0163
T06
X011042Y01145
X01155
X0123245
X0128325
T07
X0162Y00645
X01115Y0088
X0162Y012
M30
